<?xml version="1.0" encoding="iso-8859-1"?>
<!-- Generator: Adobe Illustrator 19.0.0, SVG Export Plug-In . SVG Version: 6.00 Build 0)  -->
<svg version="1.1" id="Layer_1" xmlns="http://www.w3.org/2000/svg" xmlns:xlink="http://www.w3.org/1999/xlink" x="0px" y="0px"
	 viewBox="0 0 512 512" style="enable-background:new 0 0 512 512;" xml:space="preserve">
<g>
	<g>
		<path d="M496,302.485h-54.313c1.477-79.559-47.879-176.888-118.214-217.028v63.542c0,8.836-7.164,16-16,16
			c-8.836,0-16-7.164-16-16V71.764c-23.547-6.817-47.399-6.817-70.946,0v77.235c0,8.836-7.164,16-16,16c-8.836,0-16-7.164-16-16
			V85.456C118.129,125.633,68.836,223.012,70.313,302.485H16c-8.836,0-16,7.164-16,16c0,8.836,7.164,16,16,16h57.965
			c3.365,15.266,8.961,28.865,16.499,40.849L37.13,400.212c-8.008,3.735-11.472,13.255-7.737,21.264
			c2.715,5.821,8.485,9.241,14.511,9.241c2.265,0,4.565-0.483,6.753-1.504l61.108-28.503c30.59,27.875,75.864,42.25,128.236,44.64
			V364.07l-30.139-34.801c-8.942-10.324-1.607-26.475,12.095-26.475h68.089c13.659,0,21.066,16.117,12.095,26.475L272,364.07v81.279
			c52.338-2.389,97.631-16.752,128.236-44.64l61.107,28.503c8.004,3.734,17.527,0.274,21.264-7.737
			c3.736-8.009,0.272-17.529-7.737-21.264l-53.333-24.878c7.536-11.983,13.132-25.582,16.498-40.85H496c8.836,0,16-7.164,16-16
			C512,309.648,504.836,302.485,496,302.485z M178.975,263.647c-11.69,0-21.166-9.476-21.166-21.166s9.476-21.166,21.166-21.166
			c11.69,0,21.166,9.476,21.166,21.166C200.142,254.17,190.665,263.647,178.975,263.647z M332.881,263.647
			c-11.69,0-21.166-9.476-21.166-21.166s9.476-21.166,21.166-21.166c11.69,0,21.166,9.476,21.166,21.166
			S344.571,263.647,332.881,263.647z"/>
	</g>
</g>
<g>
	<g>
		<path d="M66.731,68.198c-23.827-1.902-43.671,17.969-41.772,41.773c4.13,51.719,12.729,89.027,25.613,111.344
			c16.482-53.985,48.601-106.397,90.559-141.596C122.85,74.914,98.685,70.75,66.731,68.198z"/>
	</g>
</g>
<g>
	<g>
		<path d="M445.268,68.198c-31.954,2.552-56.12,6.715-74.4,11.52c41.982,35.217,74.086,87.639,90.56,141.597
			c12.884-22.316,21.483-59.625,25.613-111.345C488.946,86.105,469.016,66.284,445.268,68.198z"/>
	</g>
</g>
<g>
</g>
<g>
</g>
<g>
</g>
<g>
</g>
<g>
</g>
<g>
</g>
<g>
</g>
<g>
</g>
<g>
</g>
<g>
</g>
<g>
</g>
<g>
</g>
<g>
</g>
<g>
</g>
<g>
</g>
</svg>
