<?xml version="1.0" encoding="iso-8859-1"?>
<!-- Generator: Adobe Illustrator 19.0.0, SVG Export Plug-In . SVG Version: 6.00 Build 0)  -->
<svg version="1.1" id="Layer_1" xmlns="http://www.w3.org/2000/svg" xmlns:xlink="http://www.w3.org/1999/xlink" x="0px" y="0px"
	 viewBox="0 0 511.999 511.999" style="enable-background:new 0 0 511.999 511.999;" xml:space="preserve">
<g>
	<g>
		<path d="M256,239.276c-52.864,0-116.168,84.451-116.168,174.973v33.078l70.404,50.073c27.371,19.467,64.155,19.468,91.529,0
			l70.404-50.073v-33.078c0-0.304,0.008-0.607,0.024-0.911C375.829,345.298,318.567,239.276,256,239.276z M296.74,314.568
			l-23.676,27.338v23.845c0,9.424-7.641,17.065-17.065,17.065c-9.424,0-17.065-7.641-17.065-17.065v-23.845l-23.676-27.338
			c-9.536-11.011-1.716-28.237,12.9-28.237h55.681C298.408,286.333,306.308,303.521,296.74,314.568z"/>
	</g>
</g>
<g>
	<g>
		<path d="M30.737,74.41c0,33.446,19.783,50.577,30.339,61.134C74.961,89.203,91.745,47.29,144.352,11.3
			C94.933-19.453,30.737,16.199,30.737,74.41z"/>
	</g>
</g>
<g>
	<g>
		<path d="M367.646,11.3c49.466,33.844,68.118,73.65,83.277,124.243c9.512-9.511,30.339-26.983,30.339-61.134
			C481.262,16.076,416.972-19.395,367.646,11.3z"/>
	</g>
</g>
<g>
	<g>
		<path d="M468.486,313.059l-55.517-185.274C392.278,58.732,328.854,10.954,256,10.954c-72.043,0-136.045,47.003-156.97,116.829
			L43.513,313.059c-9.716,32.425,2.29,67.392,29.875,87.01l32.313,22.982c0-136.018,87.342-217.906,150.298-217.906
			c63.846,0,150.298,83.18,150.298,217.906l32.313-22.982C466.196,380.451,478.202,345.484,468.486,313.059z M173.925,189.295
			c-12.468,0-22.575-10.107-22.575-22.575s10.107-22.575,22.575-22.575s22.575,10.107,22.575,22.575
			S186.392,189.295,173.925,189.295z M338.075,189.295c-12.468,0-22.575-10.107-22.575-22.575s10.107-22.575,22.575-22.575
			s22.575,10.107,22.575,22.575C360.649,179.188,350.542,189.295,338.075,189.295z"/>
	</g>
</g>
<g>
</g>
<g>
</g>
<g>
</g>
<g>
</g>
<g>
</g>
<g>
</g>
<g>
</g>
<g>
</g>
<g>
</g>
<g>
</g>
<g>
</g>
<g>
</g>
<g>
</g>
<g>
</g>
<g>
</g>
</svg>
